PathFileType	4	(X/Y/Z)	/home/nbianco/projects/addbio/data/HamnerRunning2013/Processed/subject03//results/MarkerData/run500.trc
DataRate	CameraRate	NumFrames	NumMarkers	Units	OrigDataRate	OrigDataStartFrame	OrigNumFrames
100	100	8	45	m	100	68	183
Frame#	Time	C7			CLAV			LACR			LASI			LCAL			LFAradius			LFAsuperior			LFAulna			LLEL			LMEL			LMT5			LPSH			LPSI			LTB1			LTB2			LTB3			LTH1			LTH2			LTH3			LTOE			LUA1			LUA2			LUA3			RACR			RASI			RCAL			RFAradius			RFAsuperior			RFAulna			RLEL			RLMAL			RMEL			RMMAL			RMT5			RPSI			RTB1			RTB2			RTB3			RTH1			RTH2			RTH3			RTOE			RUA1			RUA2			RUA3		
		X1	Y1	Z1	X2	Y2	Z2	X3	Y3	Z3	X4	Y4	Z4	X5	Y5	Z5	X6	Y6	Z6	X7	Y7	Z7	X8	Y8	Z8	X9	Y9	Z9	X10	Y10	Z10	X11	Y11	Z11	X12	Y12	Z12	X13	Y13	Z13	X14	Y14	Z14	X15	Y15	Z15	X16	Y16	Z16	X17	Y17	Z17	X18	Y18	Z18	X19	Y19	Z19	X20	Y20	Z20	X21	Y21	Z21	X22	Y22	Z22	X23	Y23	Z23	X24	Y24	Z24	X25	Y25	Z25	X26	Y26	Z26	X27	Y27	Z27	X28	Y28	Z28	X29	Y29	Z29	X30	Y30	Z30	X31	Y31	Z31	X32	Y32	Z32	X33	Y33	Z33	X34	Y34	Z34	X35	Y35	Z35	X36	Y36	Z36	X37	Y37	Z37	X38	Y38	Z38	X39	Y39	Z39	X40	Y40	Z40	X41	Y41	Z41	X42	Y42	Z42	X43	Y43	Z43	X44	Y44	Z44	X45	Y45	Z45

69	1.01	0.879747	1.53022	-0.32223	0.983284	1.42887	-0.311199	0.911252	1.52303	-0.48768	0.930603	1.00468	-0.464382	0.535766	0.523854	-0.399023	0.917319	1.17943	-0.574579	0.755619	1.1935	-0.63936	0.900323	1.12253	-0.608661	0.702204	1.27512	-0.658674	0.674271	1.25123	-0.575759	0.516823	0.359655	-0.489188	0.824103	1.49609	-0.492457	0.76205	1.05243	-0.404578	0.885908	0.4436	-0.458075	0.774615	0.517239	-0.479683	0.694747	0.441321	-0.446139	0.865897	0.784636	-0.510178	0.969116	0.695484	-0.508648	0.945926	0.597008	-0.492758	0.543364	0.30109	-0.424256	0.801785	1.4326	-0.559265	0.725349	1.3712	-0.546748	0.72031	1.3443	-0.617988	0.929444	1.47285	-0.16783	0.923205	1.01897	-0.224844	0.738081	0.100978	-0.360534	1.0171	1.06384	-0.0837212	0.84059	1.10718	-0.00266822	0.992705	1.00828	-0.0525674	0.802599	1.17853	0.00649224	0.806458	0.120097	-0.294149	0.767858	1.15709	-0.0716433	0.830467	0.135327	-0.374968	0.883768	0.0562091	-0.258101	0.762959	1.05584	-0.319166	0.972994	0.374672	-0.304563	0.919835	0.329185	-0.25983	0.890466	0.207179	-0.310028	0.883828	0.77194	-0.190898	0.97486	0.728011	-0.223998	0.935132	0.61221	-0.233515	0.963648	0.0622577	-0.325976	0.878612	1.33096	-0.0722654	0.791955	1.29052	-0.0780535	0.795763	1.24154	-0.0263746
70	1.02	0.879563	1.53111	-0.321803	0.983241	1.42933	-0.313472	0.907877	1.52425	-0.487717	0.927298	1.00821	-0.464184	0.559854	0.503031	-0.402454	0.904945	1.1765	-0.57692	0.741365	1.19591	-0.634954	0.88431	1.1199	-0.609378	0.690194	1.27994	-0.651642	0.665094	1.2568	-0.567995	0.559381	0.337704	-0.49283	0.820381	1.49834	-0.490491	0.759785	1.05488	-0.402826	0.918772	0.450708	-0.457181	0.802536	0.516404	-0.478716	0.727641	0.433886	-0.447488	0.873929	0.789498	-0.510623	0.985847	0.709115	-0.506681	0.968818	0.608721	-0.491469	0.59059	0.282076	-0.427043	0.795751	1.43564	-0.556301	0.719102	1.37597	-0.540226	0.711395	1.34897	-0.611617	0.933949	1.47415	-0.16904	0.921415	1.01802	-0.22416	0.694928	0.101148	-0.360545	1.0344	1.07245	-0.0943066	0.859292	1.10539	-0.00713495	1.01382	1.01557	-0.0625558	0.817446	1.17476	0.00440171	0.763922	0.120738	-0.293391	0.781075	1.15246	-0.0729072	0.788529	0.135164	-0.374711	0.840102	0.0562106	-0.25724	0.761008	1.05786	-0.316605	0.941027	0.365938	-0.304329	0.885931	0.32256	-0.26007	0.85144	0.202708	-0.310051	0.871589	0.769225	-0.191116	0.959461	0.717987	-0.222453	0.912453	0.605027	-0.234658	0.92012	0.061911	-0.324955	0.886852	1.33013	-0.0739402	0.800706	1.2868	-0.0789829	0.807064	1.23779	-0.0274983
71	1.03	0.878835	1.53347	-0.321359	0.983119	1.43205	-0.315548	0.902749	1.5274	-0.487372	0.925698	1.01359	-0.464412	0.585617	0.479194	-0.404444	0.892563	1.17813	-0.577193	0.727317	1.20033	-0.628828	0.869068	1.12126	-0.607038	0.677893	1.28607	-0.644321	0.655443	1.26405	-0.559651	0.603405	0.315318	-0.496246	0.815445	1.50176	-0.487678	0.758923	1.05929	-0.401188	0.950144	0.459552	-0.456013	0.828698	0.515451	-0.477704	0.760631	0.426094	-0.448371	0.881643	0.796167	-0.510984	1.00125	0.725195	-0.50488	0.990665	0.622573	-0.490391	0.639855	0.262709	-0.430406	0.788867	1.44038	-0.552902	0.712493	1.38256	-0.534145	0.702279	1.35508	-0.60522	0.937965	1.47757	-0.170074	0.921677	1.01846	-0.225819	0.652568	0.102262	-0.361332	1.04882	1.08681	-0.107275	0.875767	1.10741	-0.0132186	1.03282	1.02819	-0.0759813	0.830324	1.1742	0.00164881	0.72211	0.122563	-0.29302	0.792337	1.15188	-0.0749277	0.748318	0.135886	-0.374925	0.797065	0.0563085	-0.25708	0.760016	1.06168	-0.313673	0.907594	0.3599	-0.302857	0.850165	0.318714	-0.259761	0.81212	0.200758	-0.309693	0.859685	0.768783	-0.191307	0.943297	0.709709	-0.221432	0.890062	0.600533	-0.234995	0.87709	0.061942	-0.324424	0.894013	1.33222	-0.0755862	0.808647	1.28642	-0.0798593	0.817274	1.2372	-0.0289738
72	1.04	0.87814	1.53778	-0.32084	0.983023	1.43701	-0.317513	0.896443	1.53224	-0.486838	0.925303	1.01987	-0.465282	0.613861	0.452967	-0.405116	0.880501	1.18396	-0.57571	0.713699	1.20689	-0.62126	0.855163	1.12656	-0.602686	0.665214	1.29338	-0.636545	0.645245	1.27252	-0.550824	0.649036	0.293073	-0.499293	0.809814	1.50645	-0.484155	0.759149	1.06492	-0.400233	0.979754	0.469626	-0.454477	0.853351	0.513814	-0.477032	0.793996	0.417962	-0.448631	0.888414	0.804578	-0.510935	1.01417	0.742714	-0.503198	1.01016	0.63843	-0.489265	0.690798	0.24367	-0.433955	0.781099	1.44659	-0.548948	0.705031	1.39039	-0.528542	0.692459	1.36217	-0.598832	0.941201	1.48293	-0.170926	0.923526	1.02021	-0.228673	0.610872	0.105979	-0.361954	1.0598	1.10578	-0.121747	0.889847	1.11269	-0.0205104	1.04885	1.04523	-0.0919075	0.841554	1.17628	-0.00147504	0.680771	0.126216	-0.292679	0.801679	1.1546	-0.0774139	0.709064	0.138311	-0.375113	0.754091	0.0565969	-0.257242	0.760015	1.06663	-0.311598	0.873425	0.357645	-0.300904	0.813779	0.318668	-0.259011	0.77243	0.202349	-0.308875	0.84839	0.770502	-0.191727	0.927215	0.705127	-0.221673	0.868269	0.599789	-0.234564	0.833603	0.0619664	-0.324382	0.900358	1.3365	-0.0772941	0.815795	1.28904	-0.0801003	0.826485	1.23921	-0.0304462
73	1.05	0.877678	1.544	-0.320413	0.982957	1.44387	-0.319573	0.889828	1.53845	-0.486339	0.925605	1.02688	-0.466616	0.644753	0.425086	-0.404702	0.869012	1.19313	-0.572727	0.700817	1.21554	-0.61274	0.84281	1.1352	-0.597387	0.652439	1.30182	-0.627969	0.634908	1.28202	-0.541376	0.696716	0.271523	-0.501783	0.804108	1.51248	-0.480402	0.760187	1.07139	-0.399918	1.0075	0.480387	-0.452683	0.876942	0.511025	-0.476786	0.827837	0.409556	-0.448176	0.894192	0.814636	-0.510654	1.02425	0.760724	-0.501673	1.02629	0.655899	-0.488008	0.743503	0.225659	-0.437111	0.77288	1.45422	-0.544506	0.696893	1.39922	-0.522955	0.682049	1.37018	-0.592215	0.943608	1.49001	-0.171864	0.926245	1.02332	-0.231378	0.569621	0.114165	-0.361477	1.06729	1.12783	-0.136973	0.901945	1.12068	-0.0284692	1.06154	1.06557	-0.109107	0.851605	1.18049	-0.00479518	0.639542	0.132339	-0.292034	0.809399	1.15976	-0.0801221	0.669235	0.143454	-0.374698	0.710178	0.0572763	-0.257306	0.761128	1.07227	-0.31065	0.838684	0.358995	-0.299078	0.777351	0.322236	-0.258064	0.732261	0.207468	-0.307684	0.837506	0.773994	-0.192444	0.911653	0.704196	-0.223099	0.846308	0.602431	-0.233831	0.78814	0.0616631	-0.324484	0.906107	1.3425	-0.0792058	0.822322	1.29413	-0.0797017	0.83494	1.24335	-0.0317823
74	1.06	0.877216	1.55152	-0.32029	0.982868	1.45213	-0.321783	0.883535	1.54576	-0.486009	0.926569	1.03486	-0.467717	0.678167	0.396316	-0.403617	0.85824	1.20453	-0.568454	0.688888	1.22592	-0.603692	0.831878	1.14616	-0.591743	0.64003	1.31133	-0.618418	0.625065	1.29251	-0.531175	0.746773	0.251079	-0.503375	0.798694	1.51973	-0.476858	0.76191	1.07865	-0.39979	1.03332	0.491171	-0.450679	0.900055	0.506797	-0.476729	0.862112	0.400918	-0.446979	0.899518	0.825989	-0.510578	1.03198	0.778369	-0.500421	1.03886	0.673854	-0.486771	0.798076	0.209329	-0.439098	0.764822	1.46315	-0.539759	0.688893	1.40896	-0.516798	0.671629	1.37926	-0.585025	0.945395	1.49852	-0.173082	0.929328	1.02785	-0.233304	0.528973	0.127764	-0.359621	1.07149	1.15152	-0.152414	0.912419	1.1308	-0.0366162	1.07082	1.08807	-0.126465	0.860694	1.18647	-0.00820046	0.59854	0.141279	-0.290842	0.815725	1.16679	-0.0828434	0.628315	0.15189	-0.37328	0.664494	0.0584253	-0.257067	0.76332	1.07854	-0.310289	0.803493	0.363449	-0.29739	0.740914	0.329034	-0.256881	0.692247	0.21554	-0.306087	0.827114	0.779041	-0.193423	0.896768	0.705836	-0.225215	0.823932	0.607744	-0.233142	0.739601	0.0609674	-0.324552	0.911334	1.34996	-0.0813515	0.828406	1.3011	-0.0790804	0.842789	1.2493	-0.0330323
75	1.07	0.876493	1.5597	-0.320521	0.982665	1.46135	-0.323993	0.877821	1.55386	-0.485809	0.928421	1.04403	-0.467893	0.713999	0.367357	-0.40246	0.848298	1.21713	-0.563167	0.677994	1.23739	-0.594273	0.822098	1.15836	-0.585842	0.6284	1.32174	-0.608002	0.616251	1.30392	-0.52031	0.799112	0.23179	-0.503603	0.793703	1.52792	-0.473647	0.764304	1.08667	-0.399439	1.05715	0.501343	-0.448544	0.923176	0.501178	-0.476551	0.89674	0.392135	-0.445153	0.905019	0.838145	-0.511037	1.0382	0.794958	-0.499489	1.04836	0.690796	-0.485768	0.854265	0.195108	-0.439106	0.757444	1.47304	-0.534856	0.681912	1.41944	-0.50976	0.661823	1.38949	-0.577031	0.946879	1.50806	-0.174575	0.93272	1.03363	-0.234708	0.489927	0.146047	-0.356784	1.07263	1.17569	-0.167633	0.921273	1.14247	-0.0446512	1.07682	1.11165	-0.143194	0.868752	1.19388	-0.0116107	0.558668	0.15265	-0.288894	0.820717	1.17532	-0.0853909	0.587812	0.162968	-0.370722	0.617043	0.0600162	-0.256546	0.76638	1.08542	-0.309879	0.768333	0.370831	-0.295389	0.704619	0.338877	-0.255005	0.653733	0.22583	-0.303832	0.817711	0.785565	-0.194527	0.882502	0.709181	-0.227546	0.801822	0.61537	-0.232452	0.68827	0.0602371	-0.324729	0.916056	1.35863	-0.0836408	0.834062	1.30943	-0.0787234	0.849926	1.25684	-0.0343421
76	1.08	0.875546	1.56819	-0.320967	0.982266	1.4711	-0.326035	0.872736	1.56238	-0.485591	0.931109	1.05432	-0.467075	0.752189	0.338704	-0.401745	0.839308	1.2301	-0.557276	0.668144	1.24926	-0.584478	0.813275	1.17091	-0.579547	0.617804	1.33272	-0.597052	0.608719	1.31596	-0.509082	0.853246	0.213481	-0.502134	0.789221	1.53674	-0.470612	0.76733	1.0953	-0.398685	1.07887	0.510478	-0.446636	0.946326	0.494488	-0.476198	0.931576	0.383411	-0.443067	0.910885	0.850661	-0.512043	1.04354	0.809987	-0.498784	1.05548	0.705538	-0.485117	0.911473	0.183209	-0.436703	0.75104	1.48338	-0.52986	0.676372	1.43033	-0.501938	0.653016	1.40066	-0.568265	0.948288	1.51813	-0.176262	0.936632	1.04028	-0.236177	0.454406	0.167202	-0.353604	1.07108	1.19939	-0.18213	0.928332	1.155	-0.0524036	1.07981	1.13526	-0.158819	0.875633	1.20235	-0.01497	0.521437	0.165484	-0.286116	0.824373	1.18494	-0.0876286	0.550522	0.175152	-0.367117	0.569018	0.0623128	-0.255973	0.770079	1.09271	-0.3091	0.734184	0.381162	-0.292616	0.669261	0.351537	-0.251973	0.618099	0.237719	-0.30067	0.809653	0.793404	-0.195447	0.868697	0.713977	-0.22969	0.780872	0.625271	-0.231587	0.636106	0.0601275	-0.325112	0.920335	1.36819	-0.0859599	0.839155	1.31874	-0.0788907	0.856079	1.26565	-0.0358394
